<?xml version="1.0" standalone="no"?>
<!DOCTYPE svg PUBLIC "-//W3C//DTD SVG 20010904//EN"
 "http://www.w3.org/TR/2001/REC-SVG-20010904/DTD/svg10.dtd">
<svg version="1.0" xmlns="http://www.w3.org/2000/svg"
 width="700.000000pt" height="700.000000pt" viewBox="0 0 700.000000 700.000000"
 preserveAspectRatio="xMidYMid meet">
<metadata>
Created by potrace 1.14, written by Peter Selinger 2001-2017
</metadata>
<g transform="translate(0.000000,700.000000) scale(0.100000,-0.100000)"
fill="#000000" stroke="none">
<path d="M3030 5279 c0 -5 24 -9 53 -10 203 -3 450 -60 611 -141 267 -134 482
-355 654 -669 l42 -76 0 -870 c0 -479 -3 -884 -6 -901 -12 -60 -66 -90 -169
-95 -25 -1 -45 -5 -45 -9 0 -5 104 -8 232 -8 127 0 228 3 224 7 -4 5 -23 9
-41 9 -95 4 -148 27 -167 72 -8 19 -11 279 -12 885 -1 471 1 857 4 857 7 0 23
-39 162 -390 504 -1271 500 -1263 601 -1430 301 -497 773 -760 1409 -784 54
-3 100 -1 103 3 2 5 -26 9 -63 10 -37 1 -81 4 -98 5 -32 3 -145 19 -154 21 -3
1 -32 7 -65 14 -415 91 -757 391 -988 869 -32 67 -57 130 -54 140 3 9 19 55
37 102 17 47 51 139 75 205 24 66 57 156 73 200 16 44 40 107 52 140 12 33 25
69 30 80 4 11 45 121 90 245 44 124 85 234 90 245 5 11 20 52 34 90 59 167
128 350 132 354 3 3 3 -412 2 -921 -3 -923 -3 -927 -24 -955 -24 -33 -80 -54
-146 -56 -27 0 -48 -5 -48 -9 0 -5 151 -8 335 -8 185 1 334 4 331 8 -3 5 -24
9 -48 10 -96 6 -136 22 -160 64 -10 18 -13 206 -13 913 0 490 3 902 8 917 12
44 60 70 138 76 140 10 72 18 -146 19 l-225 0 -20 -54 c-11 -29 -29 -79 -41
-110 -11 -32 -27 -74 -34 -93 -15 -36 -52 -137 -124 -340 -23 -63 -46 -124
-51 -135 -5 -11 -27 -72 -50 -135 -36 -100 -122 -334 -207 -565 -14 -38 -40
-108 -58 -155 -17 -47 -35 -94 -39 -105 -7 -18 -9 -16 -22 15 -77 195 -308
783 -396 1005 -60 154 -118 299 -129 322 -10 24 -19 46 -19 49 0 14 -106 223
-143 284 -242 390 -555 624 -983 735 -50 13 -118 27 -150 30 -32 4 -61 9 -64
10 -3 2 -42 6 -85 10 -171 12 -235 14 -235 4z"/>
<path d="M2898 5010 c-41 -7 -74 -32 -83 -61 -4 -12 -30 -26 -76 -41 -40 -12
-75 -30 -80 -40 -5 -10 -25 -24 -44 -32 -45 -19 -77 -83 -65 -127 5 -18 16
-42 25 -55 l15 -24 -43 0 c-57 0 -77 -21 -77 -83 0 -59 10 -64 120 -62 79 2
130 -8 130 -25 0 -4 24 -5 53 -3 43 3 48 2 28 -7 -14 -6 -32 -12 -40 -13 -9
-1 -21 -6 -27 -9 -6 -4 -22 -1 -37 7 -23 12 -29 11 -52 -7 -14 -11 -29 -28
-35 -37 -9 -17 -7 -18 31 -5 22 8 44 12 49 9 5 -3 19 -1 30 5 28 15 26 -4 -6
-35 -14 -14 -22 -30 -19 -35 3 -6 2 -10 -3 -10 -11 0 -32 -54 -32 -79 1 -14 2
-14 14 2 7 9 19 17 25 17 17 0 80 45 97 69 9 12 12 26 8 33 -4 6 -3 8 3 5 6
-4 14 7 17 26 4 17 12 45 19 61 12 28 13 27 11 -20 0 -27 3 -59 8 -72 6 -17 5
-21 -4 -16 -8 5 -9 -2 -5 -25 4 -18 2 -41 -3 -51 -6 -12 -7 -21 0 -25 5 -3 8
-21 6 -40 -1 -19 2 -35 7 -35 6 0 6 -5 0 -12 -5 -7 -9 -101 -9 -208 l1 -195
-32 3 c-22 3 -30 8 -26 16 20 31 -2 76 -36 76 -9 0 -28 14 -43 30 -30 34 -60
38 -113 16 -31 -13 -41 -29 -36 -58 2 -12 -27 -10 -34 2 -12 19 -31 10 -79
-36 -35 -32 -47 -50 -43 -65 3 -10 2 -17 -3 -14 -12 7 -22 -27 -11 -38 10 -10
10 -10 -39 -68 -19 -23 -30 -48 -30 -66 0 -34 33 -83 56 -83 8 0 26 -7 39 -16
27 -18 91 -12 97 8 2 6 15 -11 29 -38 13 -27 35 -54 49 -61 20 -10 22 -13 8
-18 -10 -4 -22 -22 -28 -41 -6 -19 -17 -34 -25 -34 -17 0 -36 -24 -36 -47 0
-98 36 -218 68 -230 8 -3 1 -14 -17 -30 l-30 -25 -33 21 c-19 11 -37 19 -40
16 -4 -3 -5 -3 -3 0 2 3 -23 32 -56 63 -72 69 -146 165 -189 247 -18 33 -48
86 -67 117 -36 61 -38 90 -3 81 12 -3 21 -1 21 4 0 5 15 8 33 8 48 -1 49 2 11
42 -20 20 -47 52 -62 72 -15 20 -29 38 -32 41 -3 3 -30 44 -60 92 -30 48 -57
83 -61 77 -11 -19 -10 -177 2 -221 6 -24 13 -54 15 -68 2 -14 5 -34 8 -45 2
-11 5 -33 5 -49 1 -21 4 -26 14 -18 25 20 49 -4 77 -75 36 -94 78 -165 92
-157 7 4 8 2 4 -5 -7 -10 17 -58 54 -106 17 -23 151 -156 200 -199 31 -27 102
-79 139 -101 9 -5 18 -12 21 -15 3 -3 39 -28 80 -55 41 -28 81 -56 88 -63 8
-7 18 -9 24 -6 6 4 8 2 5 -3 -7 -12 16 -36 26 -28 4 3 5 2 2 -1 -5 -8 55 -64
69 -64 15 0 75 58 68 66 -4 4 -2 5 3 1 6 -3 17 -2 25 3 10 6 22 0 40 -21 30
-37 90 -54 117 -33 10 7 32 14 50 14 24 0 38 8 55 30 12 17 29 30 38 29 26 -2
38 1 52 14 17 15 42 31 91 57 42 23 47 31 50 81 2 26 10 40 35 57 30 21 32 27
32 80 0 32 -5 63 -12 70 -10 10 -3 21 31 55 24 23 62 67 84 97 22 30 43 57 46
60 3 3 13 14 21 24 13 18 13 19 0 11 -8 -5 -1 5 16 21 17 16 43 53 58 82 26
51 55 68 72 41 4 -8 10 -6 17 7 16 28 21 72 20 176 -1 121 -10 191 -25 182 -6
-4 -8 -2 -4 4 7 12 -13 62 -26 62 -4 0 -8 -7 -8 -15 0 -22 -47 -112 -86 -166
-18 -25 -30 -50 -26 -54 4 -5 2 -5 -4 -2 -6 3 -26 -6 -44 -21 l-33 -28 62 -19
c33 -11 63 -25 65 -30 4 -12 -53 -134 -70 -150 -6 -5 -26 -30 -44 -55 -30 -40
-53 -64 -147 -152 -20 -19 -22 -19 -46 -3 -14 9 -29 30 -32 46 -8 34 -32 49
-80 52 -19 1 -35 5 -35 10 0 4 4 7 9 7 5 0 11 10 14 21 9 32 -30 77 -75 90
-40 10 -78 5 -78 -12 0 -13 -21 -11 -54 6 -15 8 -38 15 -50 15 -12 0 -34 12
-49 26 -15 14 -36 26 -47 27 -12 1 -20 9 -20 20 0 17 5 18 50 12 47 -6 50 -5
61 19 7 14 16 23 20 20 5 -3 30 4 56 16 l48 21 -35 27 c-45 36 -84 52 -101 42
-7 -5 -16 -7 -20 -4 -4 2 -23 -14 -43 -36 -19 -21 -38 -35 -41 -30 -4 6 -3 10
2 10 4 0 9 80 9 178 2 328 7 535 11 553 3 11 10 19 15 19 5 0 6 -6 2 -12 -4
-7 -4 -10 1 -6 4 4 14 3 22 -3 7 -6 13 -7 13 -3 0 9 -41 39 -50 37 -3 -1 -5
12 -6 28 l-1 30 26 -25 c30 -29 46 -23 47 17 1 26 -1 28 -35 25 -30 -3 -36 0
-36 17 0 11 4 26 9 33 6 9 6 16 0 20 -11 8 -11 19 0 44 7 16 31 18 73 4 12 -4
24 -3 27 2 3 5 33 7 68 6 50 -2 67 -7 80 -24 9 -11 19 -16 22 -11 4 5 -2 14
-11 20 -10 5 -14 13 -10 18 5 4 14 0 21 -10 12 -16 16 -16 51 -1 35 14 39 14
47 0 7 -13 12 -13 28 -3 11 6 20 18 20 25 0 7 5 10 10 7 6 -3 10 -1 10 5 0 7
-9 14 -20 17 -15 4 -18 11 -14 32 3 14 1 38 -4 52 -9 23 -15 25 -58 23 -27 -2
-53 0 -59 4 -18 11 -55 13 -55 2 0 -5 -13 -10 -30 -10 -23 0 -28 3 -23 17 5
12 2 15 -9 10 -9 -3 -23 2 -32 12 -18 19 -22 51 -6 51 5 0 27 24 49 52 44 59
41 78 -13 78 -26 0 -31 4 -33 26 -1 33 -21 73 -48 98 -45 42 -114 55 -207 36z
m-88 -266 c0 -8 -19 -13 -24 -6 -3 5 1 9 9 9 8 0 15 -2 15 -3z m394 -190 c3
-8 2 -12 -4 -9 -6 3 -10 10 -10 16 0 14 7 11 14 -7z m-361 -69 c-3 -9 -8 -14
-10 -11 -3 3 -2 9 2 15 9 16 15 13 8 -4z m-23 -61 c0 -8 -19 -13 -24 -6 -3 5
1 9 9 9 8 0 15 -2 15 -3z"/>
<path d="M315 4500 c-4 -6 18 -10 52 -11 80 -1 124 -19 148 -60 19 -33 20 -53
20 -924 0 -878 0 -890 -21 -925 -23 -40 -72 -61 -147 -62 -26 0 -49 -4 -52 -8
-3 -5 145 -9 330 -10 190 0 335 3 335 8 0 5 -8 9 -17 9 -10 -1 -46 2 -80 6
-70 9 -106 37 -117 88 -3 18 -6 216 -6 440 l0 409 52 70 c57 77 61 78 150 59
215 -46 385 -229 505 -543 196 -516 511 -815 938 -891 79 -14 361 -15 430 -1
183 37 388 97 401 118 5 8 1 9 -12 4 -80 -31 -286 -80 -380 -91 -115 -13 -294
-6 -379 16 -87 22 -197 67 -250 101 -238 155 -379 351 -545 758 -62 152 -109
239 -163 305 -135 161 -292 232 -552 250 -27 1 -56 3 -63 4 -11 1 -11 3 0 14
7 8 24 29 38 47 14 18 30 38 35 44 6 6 23 29 40 51 16 22 34 45 40 51 5 6 21
26 35 44 14 18 54 69 90 115 36 45 120 152 187 237 67 86 139 170 159 188 62
54 137 79 242 80 23 0 42 4 42 8 0 5 -103 9 -230 9 -214 0 -287 -8 -169 -19
33 -4 58 -12 71 -26 21 -20 21 -21 2 -59 -18 -36 -137 -190 -449 -583 -72 -91
-160 -203 -196 -249 l-64 -83 -3 428 c-2 236 0 447 3 470 10 71 62 104 168
104 26 0 47 4 47 9 0 13 -658 13 -665 1z"/>
<path d="M3493 4461 c-10 -17 -21 -31 -25 -31 -5 0 -8 -3 -8 -7 0 -5 22 -6 48
-5 55 4 62 19 26 53 l-23 22 -18 -32z"/>
<path d="M3136 4448 c10 -15 27 -30 37 -33 9 -4 17 -11 17 -17 0 -6 6 -6 15 2
18 15 20 46 4 56 -6 3 -18 -1 -27 -10 -15 -14 -18 -14 -41 7 l-24 22 19 -27z"/>
<path d="M3081 4448 c-22 -8 -22 -10 -9 -31 15 -22 58 -36 58 -19 0 5 -6 21
-13 34 -10 21 -17 24 -36 16z"/>
<path d="M3330 4422 c88 -69 104 -88 102 -124 -2 -33 0 -35 28 -36 20 0 33 6
40 19 14 25 7 36 -38 55 -50 20 -86 55 -70 66 7 4 21 8 31 8 14 0 17 -5 12
-19 -9 -28 25 -45 51 -26 10 7 17 15 14 17 -40 31 -64 39 -103 33 -35 -6 -46
-3 -61 14 -11 12 -24 21 -30 21 -6 -1 5 -13 24 -28z"/>
<path d="M3295 4396 c2 -22 8 -42 13 -45 8 -6 24 -39 26 -53 2 -21 42 -1 43
21 1 13 -8 21 -30 28 -25 7 -34 17 -44 48 l-13 40 5 -39z"/>
<path d="M3513 4361 c-2 -25 1 -28 29 -29 37 -1 63 25 46 45 -6 7 -25 13 -42
13 -27 0 -31 -4 -33 -29z"/>
<path d="M3156 4355 c-20 -31 -21 -31 21 -39 41 -9 49 6 20 40 l-23 26 -18
-27z"/>
<path d="M3210 4364 c0 -8 8 -18 18 -21 9 -4 22 -14 29 -22 7 -9 13 -11 14 -6
0 6 3 21 5 35 3 22 0 25 -31 27 -25 1 -35 -3 -35 -13z"/>
<path d="M3300 4311 c0 -7 -11 -16 -25 -21 -22 -8 -24 -12 -13 -29 17 -27 57
-36 76 -17 13 13 12 18 -12 46 -14 17 -26 27 -26 21z"/>
<path d="M3035 4228 c-10 -31 -9 -51 4 -56 10 -3 11 0 5 9 -7 12 -5 12 9 0 19
-15 49 -8 41 11 -2 7 -16 21 -30 31 -18 14 -25 15 -29 5z"/>
<path d="M3102 4213 c26 -28 44 -29 58 -3 12 22 11 22 -42 24 l-37 2 21 -23z"/>
</g>
</svg>
